<?xml version="1.0" standalone="no"?>
<!DOCTYPE svg PUBLIC "-//W3C//DTD SVG 20010904//EN"
 "http://www.w3.org/TR/2001/REC-SVG-20010904/DTD/svg10.dtd">
<svg version="1.0" xmlns="http://www.w3.org/2000/svg"
 width="434.000000pt" height="162.000000pt" viewBox="0 0 434.000000 162.000000"
 preserveAspectRatio="xMidYMid meet">

<g transform="translate(0.000000,162.000000) scale(0.100000,-0.100000)"
fill="#000000" stroke="none">
<path d="M477 1209 c-28 -16 -47 -64 -67 -167 -10 -53 -32 -144 -49 -202 -55
-184 -52 -260 9 -260 32 0 60 30 60 64 0 31 61 276 68 276 4 0 24 -64 45 -143
21 -78 45 -152 53 -164 18 -29 64 -30 89 -4 9 11 40 87 67 168 27 81 54 152
58 157 12 12 12 9 45 -158 27 -142 45 -193 71 -203 24 -9 62 6 69 27 3 10 -10
77 -29 147 -19 70 -42 175 -51 233 -33 212 -43 240 -90 240 -41 0 -55 -23 -85
-140 -44 -166 -80 -272 -93 -267 -13 4 -31 70 -52 192 -33 192 -60 238 -118
204z"/>
<path d="M2040 1150 c-16 -16 -20 -31 -18 -68 l3 -47 -55 -5 -55 -5 0 -40 0
-40 55 -10 55 -10 7 -45 c3 -25 7 -97 7 -161 1 -125 6 -139 53 -139 41 0 48
28 48 201 l0 149 48 0 c53 0 82 20 82 57 0 31 -20 41 -80 45 l-55 3 -5 54 c-8
76 -48 103 -90 61z"/>
<path d="M3344 1160 c-38 -15 -93 -81 -114 -138 -44 -117 -44 -278 1 -382 67
-156 244 -161 322 -8 82 159 47 443 -62 516 -36 23 -105 29 -147 12z m103
-192 c24 -45 24 -207 1 -260 -14 -32 -22 -38 -48 -38 -26 0 -33 6 -46 36 -34
81 -27 232 13 277 26 28 60 21 80 -15z"/>
<path d="M3698 1123 c-20 -44 -22 -69 -26 -290 -5 -273 0 -306 47 -301 34 4
52 43 59 125 4 50 9 67 26 78 11 8 25 15 31 15 5 0 26 -35 47 -78 46 -98 73
-132 104 -132 49 0 37 82 -32 207 -19 34 -34 68 -34 75 0 8 15 29 33 47 39 37
80 113 75 139 -2 10 -14 18 -30 20 -23 3 -41 -10 -106 -77 -42 -45 -81 -81
-85 -81 -4 0 -7 51 -8 113 0 137 -13 181 -52 185 -24 3 -30 -2 -49 -45z"/>
<path d="M1618 1018 c-79 -21 -114 -112 -67 -172 12 -15 56 -44 98 -66 96 -48
111 -63 86 -90 -22 -24 -80 -27 -132 -5 -45 19 -67 19 -83 0 -21 -26 -3 -65
38 -82 56 -24 177 -21 229 6 50 25 63 46 63 100 0 54 -32 89 -122 133 -41 20
-80 44 -88 53 -12 15 -12 19 5 31 29 22 108 18 130 -6 19 -21 50 -26 60 -10
11 18 8 90 -5 105 -15 18 -150 19 -212 3z"/>
<path d="M1184 996 c-86 -40 -135 -119 -134 -217 1 -82 35 -146 94 -176 38
-20 122 -19 170 1 38 16 40 16 62 -5 25 -23 62 -22 77 2 8 12 4 32 -13 73 -20
50 -22 69 -19 179 l4 122 -45 23 c-59 30 -129 29 -196 -2z m122 -64 c6 -4 14
-56 18 -119 l6 -112 -29 -16 c-57 -29 -114 -18 -136 26 -47 90 16 206 125 228
3 0 10 -3 16 -7z"/>
<path d="M2440 1009 c-68 -27 -120 -111 -128 -205 -6 -79 1 -105 39 -149 53
-60 170 -81 276 -50 60 18 86 43 81 82 -4 38 -28 40 -98 9 -32 -14 -69 -26
-84 -26 -34 0 -109 37 -104 52 2 6 53 32 113 59 119 53 155 83 155 130 0 44
-15 66 -60 89 -43 22 -145 27 -190 9z m145 -94 c0 -15 -159 -95 -169 -85 -14
14 26 73 61 91 34 17 108 13 108 -6z"/>
<path d="M2802 1008 c-17 -17 -17 -399 0 -416 15 -15 51 -15 66 0 8 8 12 49
12 120 0 74 5 118 14 136 18 35 70 73 104 75 23 2 27 -2 33 -37 9 -54 42 -72
73 -40 25 24 24 128 -1 157 -25 27 -117 23 -170 -7 l-42 -24 -16 24 c-17 26
-53 32 -73 12z"/>
</g>
</svg>
